# xmcd
#
# Track frame offsets: 
#        150
#        27772
#        49393
#        71319
#        88672
#        103920
#        131713
#        159535
#        171702
#        193703
#        228143
#        245904
#        297788
#
# Disc length: 4405 seconds
#
# Revision: 0
# Processed by: cddbd v1.5.2PL0 Copyright (c) Steve Scherf et al.
# Submitted via: ExactAudioCopy v0.99pb5
#
DISCID=be11330d
DTITLE=Juke Jumpers - On Stage
DYEAR=2007
DGENRE=Blues
TTITLE0=Farther Up The Road
TTITLE1=Georgia Slop
TTITLE2=Hot Dog
TTITLE3=Lips 'n' Fingers Bar-B-Que
TTITLE4=Lone Star Saturday Night
TTITLE5=Never Make Your Move Too Soon
TTITLE6=Merry Christmas Baby
TTITLE7=Okie Dokie Stomp
TTITLE8=Rocket In My Pocket
TTITLE9=T-Bone Shuffle
TTITLE10=Somebody's Been Rockin' My Boat
TTITLE11=Long Distance Call
TTITLE12=Bluebird Boogie
EXTD=
EXTT0=
EXTT1=
EXTT2=
EXTT3=
EXTT4=
EXTT5=
EXTT6=
EXTT7=
EXTT8=
EXTT9=
EXTT10=
EXTT11=
EXTT12=
PLAYORDER=
